<svg width="39" height="39" viewBox="0 0 39 39" fill="none" xmlns="http://www.w3.org/2000/svg">
<path d="M37.5005 24.01C31.7815 26.3225 25.6693 27.5075 19.5005 27.5C13.1345 27.5 7.06049 26.26 1.50049 24.01M19.5005 21.5H19.5205M27.5005 9.5V5.5C27.5005 4.43913 27.0791 3.42172 26.3289 2.67157C25.5788 1.92143 24.5614 1.5 23.5005 1.5H15.5005C14.4396 1.5 13.4222 1.92143 12.6721 2.67157C11.9219 3.42172 11.5005 4.43913 11.5005 5.5V9.5H27.5005ZM5.50049 37.5H33.5005C34.5614 37.5 35.5788 37.0786 36.3289 36.3284C37.0791 35.5783 37.5005 34.5609 37.5005 33.5V13.5C37.5005 12.4391 37.0791 11.4217 36.3289 10.6716C35.5788 9.92143 34.5614 9.5 33.5005 9.5H5.50049C4.43962 9.5 3.42221 9.92143 2.67206 10.6716C1.92192 11.4217 1.50049 12.4391 1.50049 13.5V33.5C1.50049 34.5609 1.92192 35.5783 2.67206 36.3284C3.42221 37.0786 4.43962 37.5 5.50049 37.5Z" stroke="#4640DE" stroke-width="3" stroke-linecap="round" stroke-linejoin="round"/>
</svg>
