<svg width="44" height="36" viewBox="0 0 44 36" fill="none" xmlns="http://www.w3.org/2000/svg">
<path fill-rule="evenodd" clip-rule="evenodd" d="M22 4C20.9391 4 19.9217 4.42143 19.1716 5.17157C18.4214 5.92172 18 6.93913 18 8C18 9.06087 18.4214 10.0783 19.1716 10.8284C19.9217 11.5786 20.9391 12 22 12C23.0609 12 24.0783 11.5786 24.8284 10.8284C25.5786 10.0783 26 9.06087 26 8C26 6.93913 25.5786 5.92172 24.8284 5.17157C24.0783 4.42143 23.0609 4 22 4ZM16.3431 2.34315C17.8434 0.842855 19.8783 0 22 0C24.1217 0 26.1566 0.842855 27.6569 2.34315C29.1571 3.84344 30 5.87827 30 8C30 10.1217 29.1571 12.1566 27.6569 13.6569C26.1566 15.1571 24.1217 16 22 16C19.8783 16 17.8434 15.1571 16.3431 13.6569C14.8429 12.1566 14 10.1217 14 8C14 5.87827 14.8429 3.84344 16.3431 2.34315ZM8 12C7.46957 12 6.96086 12.2107 6.58579 12.5858C6.21071 12.9609 6 13.4696 6 14C6 14.5304 6.21071 15.0391 6.58579 15.4142C6.96086 15.7893 7.46957 16 8 16C8.53043 16 9.03914 15.7893 9.41421 15.4142C9.78929 15.0391 10 14.5304 10 14C10 13.4696 9.78929 12.9609 9.41421 12.5858C9.03914 12.2107 8.53043 12 8 12ZM3.75736 9.75736C4.88258 8.63214 6.4087 8 8 8C9.5913 8 11.1174 8.63214 12.2426 9.75736C13.3679 10.8826 14 12.4087 14 14C14 15.5913 13.3679 17.1174 12.2426 18.2426C11.1174 19.3679 9.5913 20 8 20C6.4087 20 4.88258 19.3679 3.75736 18.2426C2.63214 17.1174 2 15.5913 2 14C2 12.4087 2.63214 10.8826 3.75736 9.75736ZM36 12C35.4696 12 34.9609 12.2107 34.5858 12.5858C34.2107 12.9609 34 13.4696 34 14C34 14.5304 34.2107 15.0391 34.5858 15.4142C34.9609 15.7893 35.4696 16 36 16C36.5304 16 37.0391 15.7893 37.4142 15.4142C37.7893 15.0391 38 14.5304 38 14C38 13.4696 37.7893 12.9609 37.4142 12.5858C37.0391 12.2107 36.5304 12 36 12ZM31.7574 9.75736C32.8826 8.63214 34.4087 8 36 8C37.5913 8 39.1174 8.63214 40.2426 9.75736C41.3679 10.8826 42 12.4087 42 14C42 15.5913 41.3679 17.1174 40.2426 18.2426C39.1174 19.3679 37.5913 20 36 20C34.4087 20 32.8826 19.3679 31.7574 18.2426C30.6321 17.1174 30 15.5913 30 14C30 12.4087 30.6321 10.8826 31.7574 9.75736ZM22 21.9986C20.4005 21.9986 18.8377 22.4778 17.5132 23.3745C16.2646 24.2197 15.2817 25.3993 14.6753 26.7757L14.1931 32H29.8069L29.3247 26.7757C28.7183 25.3993 27.7354 24.2197 26.4868 23.3745C25.1623 22.4778 23.5995 21.9986 22 21.9986ZM34 32H40V30.0001C40 30.0001 40 30.0002 40 30.0001C39.9999 29.1689 39.7409 28.3582 39.2589 27.681C38.7768 27.0037 38.0957 26.4935 37.3103 26.2211C36.5249 25.9488 35.6742 25.928 34.8763 26.1615C34.4028 26.3001 33.9619 26.5242 33.5741 26.82C33.8523 27.835 34 28.902 34 30V32ZM31.8595 23.1553C31.02 21.9464 29.9607 20.8958 28.7291 20.062C26.7427 18.7173 24.3988 17.9986 22 17.9986C19.6012 17.9986 17.2573 18.7173 15.2709 20.062C14.0393 20.8958 12.98 21.9464 12.1405 23.1553C11.5515 22.799 10.9156 22.5182 10.2473 22.3226C8.65167 21.8555 6.95017 21.8972 5.37933 22.4419C3.8085 22.9865 2.44637 24.007 1.4823 25.3615C0.518228 26.716 0.000121593 28.3373 0 29.9999V34C0 35.1046 0.89543 36 2 36H42C43.1046 36 44 35.1046 44 34V30C43.9999 28.3374 43.4818 26.716 42.5177 25.3615C41.5536 24.007 40.1915 22.9865 38.6207 22.4419C37.0498 21.8972 35.3483 21.8555 33.7527 22.3226C33.0844 22.5182 32.4485 22.799 31.8595 23.1553ZM10.4259 26.82C10.0381 26.5242 9.59718 26.3001 9.12365 26.1615C8.32584 25.928 7.47509 25.9488 6.68967 26.2211C5.90425 26.4935 5.22318 27.0037 4.74115 27.681C4.25914 28.3582 4.00009 29.1688 4 30C4 30 4 30 4 30V32H10V30C10 28.902 10.1477 27.835 10.4259 26.82Z" fill="#25324B"/>
</svg>
